<?xml version="1.0" encoding="UTF-8"?><svg id="Layer_1" xmlns="http://www.w3.org/2000/svg" viewBox="0 0 32 32"><defs><style>.cls-1{fill:#ff5a60;}</style></defs><g id="dirt_cake_logo"><path class="cls-1" d="M31.55,32H.45c-.25,0-.45-.21-.45-.48V.48c0-.26.2-.48.45-.48h31.11c.25,0,.45.21.45.48v31.05c0,.26-.2.48-.45.48ZM.89,31.05h30.21V.95H.89v30.09Z"/><g id="studio"><path class="cls-1" d="M26.89,22.99c-1.37,0-2.54,1.41-2.61,3.14-.07,1.74.99,3.14,2.36,3.14s2.54-1.41,2.61-3.14c.07-1.74-.99-3.14-2.36-3.14ZM27.63,25.73c-.04.61-.46,1.1-.95,1.1s-.85-.49-.82-1.1c.04-.61.46-1.1.95-1.1s.85.49.82,1.1Z"/><polygon class="cls-1" points="21.93 25.17 21.93 29.28 23.53 29.15 24.01 25.34 21.93 25.17"/><ellipse class="cls-1" cx="23.03" cy="23.99" rx="1.11" ry=".93"/><path class="cls-1" d="M21.47,25.47c-.59-3.02-3.72-2.42-3.72-2.42l-.39,5.8s.77.57,1.9.39c2.16-.34,2.51-2.23,2.21-3.77ZM19.74,26.98c-.38,0-.69-.49-.69-1.1s.31-1.1.69-1.1.69.49.69,1.1-.31,1.1-.69,1.1Z"/><path class="cls-1" d="M13.12,26.15s-.89.23-1.81-.37c0,0,.2,3.43,2.51,3.47,2.14.03,3.24-2.03,3.32-3.86.06-1.43-.08-2.33-.08-2.33l-2.96.11s.68,1.62.79,2.99c.09,1.25-.5,1.78-1,1.61s-.76-1.61-.76-1.61Z"/><path class="cls-1" d="M7.59,23.06l5.53.09v2.5s-1.56,0-2.29-.81l.32,4.17-1.98.24.42-4.44s-.83.88-1.83.71l-.16-2.46Z"/><path class="cls-1" d="M7.34,25.41l-.31-2.35s-1.87-.34-2.67.53.12,1.75.84,2.11,1.69,1.05,1.18,1.43-2.32.38-3.48-1.49l.13,3.11s1.19.57,2.26.51c1.36-.07,2.93-.57,2.99-1.67.04-.78-.28-.94-1.22-1.61-.53-.38-1.01-.5-.86-.86s1.15.3,1.15.3Z"/></g><g id="cake"><path class="cls-1" d="M6.26,19.22c-.56-.05-1.07-.59-1.11-1.29-.05-.98.62-1.63,1.39-1.63.26,0,.55.16.7.28l1.39-2.92c-.44-.6-1.45-1.05-2.23-.94-2.29.32-3.52,1.98-3.62,4.8-.09,2.6,1.65,4.64,3.82,4.52,1.12-.06,2.54-.48,3.47-1.46l-2.56-1.81c-.28.38-.65.51-1.26.46Z"/><path class="cls-1" d="M10.15,13.07l-2.24,5.02,2.38,1.71.36-1.65,1.47.11.25,3.71,3.2.03-1.82-9.3-3.59.37ZM11.04,16.58l.64-2.33.33,2.37-.96-.04Z"/><path class="cls-1" d="M19.31,12.72s-.01,1.82-1.07,3.02l.08-3.01-3.27.27,1.23,8.97,1.53-.06.27-2.84c.11.5,1.12,2,1.64,2.38,1.16.85,2.6.29,2.6.29l.28-5.16s-1.24,1.84-2.38,1.65c-1.14-.2-1.26-.97-1.26-.97,0,0,1.77.07,3.1-1.49.73-.85.9-2,.89-2.79l-3.63-.25Z"/><polygon class="cls-1" points="23.84 13.09 23.16 21.96 29.2 21.66 29.05 19.48 26.28 19.75 26.18 18.43 27.59 18.37 27.53 16.73 25.93 16.71 25.87 15.1 28.73 15.3 28.64 12.74 23.84 13.09"/></g><g id="dirt"><path class="cls-1" d="M8.85,5.47C7.1,1.2,2.89,3.24,2.89,3.24l.17,8.6c3.46.85,7.74-1.57,5.78-6.37ZM6.86,9.07c-.64.03-1.16-.69-1.17-1.62s.5-1.7,1.14-1.73,1.16.69,1.17,1.62c0,.93-.5,1.7-1.14,1.73Z"/><polygon class="cls-1" points="10.75 12 13.26 11.57 13.74 6.34 9.82 5.97 10.75 12"/><ellipse class="cls-1" cx="11.84" cy="4.4" rx="1.45" ry="1.99" transform="translate(5.91 15.56) rotate(-82.39)"/><path class="cls-1" d="M23.11,7.94s-.6.51-1.83.61c-1.45.13-2.73-.52-2.73-.52,2.84-.71,2.35-4.5.53-5.07-2.13-.67-4.18.68-4.18.68l-.68,8.32,2.85-.19-.27-3.35s.98,2.59,3.11,3.35c1.46.52,2.83-.11,2.83-.11l.36-3.71ZM18.02,6.46c-.45-.12-.71-.71-.57-1.31.13-.6.61-.99,1.06-.87.45.12.71.71.57,1.31-.13.6-.61.99-1.06.87Z"/><path class="cls-1" d="M21.2,2.9l7.9-.19.15,5.26s-1.16-.14-1.92-.75c-.65-.53-1.19-1.37-1.19-1.37l.83,6.11-3.15-.27.57-5.78s-1.23,1.6-2.97,1.66l-.21-4.69Z"/></g></g></svg>